<svg width="30" height="30" viewBox="0 0 30 30" fill="none" xmlns="http://www.w3.org/2000/svg">
<rect width="30" height="30" rx="10" fill="black"/>
<path fill-rule="evenodd" clip-rule="evenodd" d="M19.6667 14.3333H15.6667V10.3333C15.6667 9.96466 15.3681 9.66666 15.0001 9.66666C14.6321 9.66666 14.3334 9.96466 14.3334 10.3333V14.3333H10.3334C9.96541 14.3333 9.66675 14.6313 9.66675 15C9.66675 15.3687 9.96541 15.6667 10.3334 15.6667H14.3334V19.6667C14.3334 20.0353 14.6321 20.3333 15.0001 20.3333C15.3681 20.3333 15.6667 20.0353 15.6667 19.6667V15.6667H19.6667C20.0347 15.6667 20.3334 15.3687 20.3334 15C20.3334 14.6313 20.0347 14.3333 19.6667 14.3333" fill="#231F20"/>
<mask id="mask0_0_1" style="mask-type:alpha" maskUnits="userSpaceOnUse" x="9" y="9" width="12" height="12">
<path fill-rule="evenodd" clip-rule="evenodd" d="M19.6667 14.3333H15.6667V10.3333C15.6667 9.96466 15.3681 9.66666 15.0001 9.66666C14.6321 9.66666 14.3334 9.96466 14.3334 10.3333V14.3333H10.3334C9.96541 14.3333 9.66675 14.6313 9.66675 15C9.66675 15.3687 9.96541 15.6667 10.3334 15.6667H14.3334V19.6667C14.3334 20.0353 14.6321 20.3333 15.0001 20.3333C15.3681 20.3333 15.6667 20.0353 15.6667 19.6667V15.6667H19.6667C20.0347 15.6667 20.3334 15.3687 20.3334 15C20.3334 14.6313 20.0347 14.3333 19.6667 14.3333" fill="white"/>
</mask>
<g mask="url(#mask0_0_1)">
<rect x="7" y="7" width="16" height="16" fill="white"/>
</g>
</svg>
