<svg viewBox="0 0 24 24" width="24" height="24" style="display: block;">
	<g fill="currentColor">
		<path clip-rule="evenodd" d="M9.489 4.55c1.116-1.933 3.906-1.933 5.022 0l6.929 12c1.116 1.933-.28 4.35-2.512 4.35H5.072c-2.233 0-3.628-2.417-2.512-4.35zm3.464.9a1.1 1.1 0 0 0-1.906 0l-6.928 12a1.1 1.1 0 0 0 .953 1.65h13.856a1.1 1.1 0 0 0 .953-1.65z" fill-rule="evenodd" />
		<path clip-rule="evenodd" d="M12 8c.497 0 .9.374.9.836v4.828c0 .462-.403.836-.9.836s-.9-.374-.9-.836V8.836c0-.462.403-.836.9-.836z" fill-rule="evenodd" />
		<path d="M13 16.5a1 1 0 1 1-2 0 1 1 0 0 1 2 0z" />
	</g>
</svg>
